<svg xmlns="http://www.w3.org/2000/svg" xmlns:xlink="http://www.w3.org/1999/xlink" width="458" height="254" viewBox="0 0 457.7 254"><g id="graph0" class="graph" transform="scale(1.0 1.0) rotate(0) translate(4 250)"><title>org.fegaeze</title><polygon fill="#fff" stroke="transparent" points="-4 4 -4 -250 453.7 -250 453.7 4 -4 4"/><g id="node1" class="node"><title>Board</title><polygon fill="none" stroke="#000" points="203.2 -10 203.2 -32 243.2 -32 243.2 -10 203.2 -10"/><text x="206.1" y="-16.4" font-family="Times,serif" font-size="14" text-anchor="start">Board</text><polygon fill="none" stroke="#000" points="203.2 -4 203.2 -10 243.2 -10 243.2 -4 203.2 -4"/></g><g id="node2" class="node"><title>GameSystem</title><polygon fill="none" stroke="#000" points="11.2 -114.5 11.2 -136.5 127.2 -136.5 127.2 -114.5 11.2 -114.5"/><text x="31.88" y="-120.9" font-family="Times,serif" font-size="14" text-anchor="start">GameSystem</text><polygon fill="none" stroke="#000" points="11.2 -75.5 11.2 -114.5 127.2 -114.5 127.2 -75.5 11.2 -75.5"/><text x="14.2" y="-98.9" font-family="Times,serif" font-size="14" text-anchor="start">display :String</text><text x="14.2" y="-82.1" font-family="Times,serif" font-size="14" text-anchor="start">gameOver :boolean</text></g><g id="edge1" class="edge"><title>Board-&gt;GameSystem</title><path fill="none" stroke="#000" d="M194.96,-34.87C176.46,-45.25 151.59,-59.22 128.85,-72"/><text x="93.08" y="-59.4" font-family="Times,serif" font-size="14" text-anchor="middle">gameSystem</text><text x="179.02" y="-22.27" font-family="Times,serif" font-size="14" text-anchor="middle">board</text></g><g id="node3" class="node"><title>Kalah</title><polygon fill="none" stroke="#000" points="162.2 -114.5 162.2 -136.5 285.2 -136.5 285.2 -114.5 162.2 -114.5"/><text x="206.99" y="-120.9" font-family="Times,serif" font-size="14" text-anchor="start">Kalah</text><polygon fill="none" stroke="#000" points="162.2 -75.5 162.2 -114.5 285.2 -114.5 285.2 -75.5 162.2 -75.5"/><text x="165.2" y="-98.9" font-family="Times,serif" font-size="14" text-anchor="start">names :String</text><text x="165.2" y="-82.1" font-family="Times,serif" font-size="14" text-anchor="start">numberOfStones :int</text></g><g id="edge2" class="edge"><title>Board-&gt;Kalah</title><path fill="none" stroke="#000" d="M223.2,-36.09C223.2,-46.33 223.2,-59.71 223.2,-71.98"/><text x="202.79" y="-59.38" font-family="Times,serif" font-size="14" text-anchor="middle">kalah *</text><text x="207.27" y="-40.29" font-family="Times,serif" font-size="14" text-anchor="middle">board</text></g><g id="node5" class="node"><title>PlayingPit</title><polygon fill="none" stroke="#000" points="319.2 -114.5 319.2 -136.5 442.2 -136.5 442.2 -114.5 319.2 -114.5"/><text x="351.53" y="-120.9" font-family="Times,serif" font-size="14" text-anchor="start">PlayingPit</text><polygon fill="none" stroke="#000" points="319.2 -75.5 319.2 -114.5 442.2 -114.5 442.2 -75.5 319.2 -75.5"/><text x="322.2" y="-98.9" font-family="Times,serif" font-size="14" text-anchor="start">names :String</text><text x="322.2" y="-82.1" font-family="Times,serif" font-size="14" text-anchor="start">numberOfStones :int</text></g><g id="edge3" class="edge"><title>Board-&gt;PlayingPit</title><path fill="none" stroke="#000" d="M251.27,-34.46C270.15,-44.86 295.77,-58.98 319.2,-71.89"/><text x="282.45" y="-59.29" font-family="Times,serif" font-size="14" text-anchor="middle">playingPits *</text><text x="267.21" y="-21.86" font-family="Times,serif" font-size="14" text-anchor="middle">board</text></g><g id="node4" class="node"><title>Player</title><polygon fill="none" stroke="#000" points="29.2 -219.5 29.2 -241.5 109.2 -241.5 109.2 -219.5 29.2 -219.5"/><text x="51.32" y="-225.9" font-family="Times,serif" font-size="14" text-anchor="start">Player</text><polygon fill="none" stroke="#000" points="29.2 -180.5 29.2 -219.5 109.2 -219.5 109.2 -180.5 29.2 -180.5"/><text x="32.2" y="-203.9" font-family="Times,serif" font-size="14" text-anchor="start">name :String</text><text x="32.2" y="-187.1" font-family="Times,serif" font-size="14" text-anchor="start">turn :boolean</text></g><g id="edge4" class="edge"><title>GameSystem-&gt;Player</title><path fill="none" stroke="#000" d="M69.2,-141.23C69.2,-152.61 69.2,-165.31 69.2,-176.7"/><text x="43.74" y="-164.1" font-family="Times,serif" font-size="14" text-anchor="middle">players *</text><text x="34.6" y="-145.43" font-family="Times,serif" font-size="14" text-anchor="middle">gamesystem</text></g></g></svg>